<?xml version="1.0" standalone="no"?>
<!DOCTYPE svg PUBLIC "-//W3C//DTD SVG 1.1//EN" "http://www.w3.org/Graphics/SVG/1.1/DTD/svg11.dtd" >
<svg xmlns="http://www.w3.org/2000/svg" xmlns:xlink="http://www.w3.org/1999/xlink" version="1.1">
<metadata></metadata>
<defs>
<font id="amikobold" horiz-adv-x="1310" >
<font-face units-per-em="2048" ascent="1638" descent="-410" />
<missing-glyph horiz-adv-x="573" />
<glyph unicode="&#xfb01;" d="M207 868h-160v201h160v123q0 190 88 283.5t256 93.5q63 0 108.5 -12.5t88.5 -36.5v-224q-90 47 -162 47q-59 0 -84 -33.5t-25 -117.5v-123h250v-201h-250v-868h-270v868zM905 1276q-49 47 -49 123t49 123t119 47t119 -47t49 -123t-49.5 -123t-118.5 -47q-70 0 -119 47z M1159 1069v-1069h-270v1067z" />
<glyph unicode="&#xfb02;" d="M207 868h-160v201h160v123q0 190 88 283.5t256 93.5q63 0 108.5 -12.5t88.5 -36.5v-224q-90 47 -162 47q-59 0 -84 -33.5t-25 -117.5v-123h250v-201h-250v-868h-270v868zM889 1544h270v-1544h-270v1544z" />
<glyph horiz-adv-x="0" />
<glyph horiz-adv-x="0" />
<glyph unicode="&#xd;" horiz-adv-x="573" />
<glyph unicode=" "  horiz-adv-x="573" />
<glyph unicode="&#x09;" horiz-adv-x="573" />
<glyph unicode="&#xa0;" horiz-adv-x="573" />
<glyph unicode="!" horiz-adv-x="630" d="M180 1544h271v-1024h-271v1024zM187.5 25.5q-52.5 50.5 -52.5 132.5t52.5 132t127.5 50q76 0 128.5 -50t52.5 -132t-52.5 -132.5t-128.5 -50.5q-75 0 -127.5 50.5z" />
<glyph unicode="&#x22;" horiz-adv-x="819" d="M459 1425h270l-24 -536h-221zM90 1425h270l-24 -536h-221z" />
<glyph unicode="#" horiz-adv-x="1486" d="M1194 887l-45 -348h258l-29 -224h-258l-39 -315h-258l39 315h-340l-39 -315h-258l39 315h-264l31 224h262l45 348h-260l33 223h256l39 315h258l-39 -315h340l39 315h258l-39 -315h264l-31 -223h-262zM936 887h-340l-45 -348h340z" />
<glyph unicode="$" horiz-adv-x="1216" d="M1018.5 122.5q-107.5 -110.5 -293.5 -138.5v-222h-168v213q-117 6 -238.5 36t-228.5 79v262q262 -137 467 -143v424q-141 53 -223 95t-141.5 120t-59.5 199q0 164 113.5 268t310.5 129v219h168v-215q199 -10 356 -90v-256q-180 104 -356 112v-385q123 -45 206 -93 t139 -130t56 -205q0 -168 -107.5 -278.5zM447.5 969q37.5 -39 109.5 -72v307q-70 -14 -108.5 -50t-38.5 -91t37.5 -94zM848 385q0 57 -32 99t-91 75v-330q123 43 123 156z" />
<glyph unicode="%" horiz-adv-x="1843" d="M140.5 713.5q-95.5 117.5 -95.5 310.5t95.5 310.5t293.5 117.5q199 0 294 -117.5t95 -310.5t-95 -310.5t-294 -117.5q-198 0 -293.5 117.5zM1587 1425l-1128 -1425h-203l1128 1425h203zM559 842.5q41 70.5 41 181.5q0 109 -42 180.5t-124 71.5t-124 -71.5t-42 -180.5 q0 -111 41 -181.5t125 -70.5t125 70.5zM1115 91q-95 118 -95 310q0 193 95 310.5t294 117.5t294 -117.5t95 -310.5t-95 -310.5t-294 -117.5t-294 118zM1534 220.5q41 70.5 41 180.5q0 109 -42 180.5t-124 71.5t-124 -71.5t-42 -180.5q0 -111 41 -181t125 -70t125 70.5z" />
<glyph unicode="&#x26;" horiz-adv-x="1396" d="M1051 0l-119 121q-178 -145 -400 -146q-139 0 -250.5 54.5t-174 149.5t-62.5 218q0 238 254 414q-61 123 -61 248q0 180 123.5 285.5t324.5 105.5q102 0 181 -29.5t161 -93.5v-248q-72 68 -153.5 103t-165.5 35q-92 0 -143.5 -43.5t-51.5 -122.5q0 -82 53.5 -172.5 t159.5 -198.5l217 -221q68 92 152 250h8l158 -144q-76 -154 -160 -264l295 -301h-346zM774 281l-342 346l-6 6q-98 -94 -98 -219q0 -102 59 -158.5t160 -56.5q118 0 227 82z" />
<glyph unicode="'" horiz-adv-x="450" d="M90 1425h270l-24 -536h-221z" />
<glyph unicode="(" horiz-adv-x="720" d="M193.5 162q-103.5 248 -103.5 545q0 612 426 976l129 -139q-145 -162 -207.5 -369.5t-62.5 -472.5q0 -254 60.5 -460.5t211.5 -360.5l-131 -139q-219 172 -322.5 420z" />
<glyph unicode=")" horiz-adv-x="720" d="M76 -119q145 162 207.5 370t62.5 472q0 254 -60.5 461t-211.5 360l131 139q219 -172 322.5 -419.5t103.5 -544.5q0 -612 -426 -977z" />
<glyph unicode="*" horiz-adv-x="765" d="M242 936l-142 106l203 191l-2 6l-256 23l47 184l238 -121l6 4l-47 256h192l-51 -258l6 -4l240 121l45 -184l-254 -23l-2 -6l201 -191l-142 -106l-137 244h-8z" />
<glyph unicode="+" horiz-adv-x="1216" d="M1081 600h-354v-395h-238v395h-354v217h354v395h238v-395h354v-217z" />
<glyph unicode="," horiz-adv-x="532" d="M414 307q0 -137 -37 -282.5t-131 -331.5h-271q68 123 98.5 230.5t38 190.5t7.5 193h295z" />
<glyph unicode="-" horiz-adv-x="819" d="M676 662v-218h-533v218h533z" />
<glyph unicode="." horiz-adv-x="532" d="M135 26.5q-53 51.5 -53 135.5t53 135t131 51t131.5 -51t53.5 -135t-53.5 -135.5t-131.5 -51.5t-131 51.5z" />
<glyph unicode="/" horiz-adv-x="720" d="M721 1544l-469 -2019h-252l467 2019h254z" />
<glyph unicode="0" horiz-adv-x="1269" d="M209 177q-137 202 -137 536t137 535.5t426 201.5t426 -201.5t137 -535.5t-137 -536t-426 -202t-426 202zM847.5 346q65.5 139 65.5 367q0 227 -65.5 366.5t-212.5 139.5t-213 -139.5t-66 -366.5t65.5 -366.5t213.5 -139.5q147 0 212.5 139z" />
<glyph unicode="1" horiz-adv-x="1269" d="M1133 238v-238h-996v238h400v872l-263 -115h-8l-57 174v9l407 247h191v-1187h326z" />
<glyph unicode="2" horiz-adv-x="1269" d="M1120 240v-240h-970v205l456 479q113 117 156 194.5t43 149.5q0 188 -234 189q-96 0 -193 -29t-185 -86v248q180 100 391 100q227 0 361 -106.5t134 -292.5q0 -213 -192 -426l-350 -385h583z" />
<glyph unicode="3" horiz-adv-x="1269" d="M1074.5 597q58.5 -93 58.5 -206q0 -125 -70 -219t-197 -145.5t-288 -51.5q-119 0 -226.5 29t-214.5 88v264h8q213 -147 422 -147q131 0 209 52t78 145q0 100 -88 162.5t-238 62.5h-86v225h86q139 0 219 51t80 142q0 80 -66.5 122.5t-185.5 42.5q-92 0 -185 -28.5 t-204 -89.5h-8v254q195 100 410 100q233 0 373.5 -101.5t140.5 -275.5q0 -102 -50.5 -187t-140.5 -141q105 -55 163.5 -148z" />
<glyph unicode="4" horiz-adv-x="1269" d="M1186 311h-197v-311h-270v311h-639v211l639 903h270v-882h197v-232zM719 543v501l-324 -501h324z" />
<glyph unicode="5" horiz-adv-x="1269" d="M927.5 835.5q106.5 -59.5 166 -164t59.5 -233.5q0 -139 -69.5 -243.5t-196.5 -161t-295 -56.5q-129 0 -254 34t-221 98v262h8q92 -72 221 -117t240 -45q131 0 211 64.5t80 168.5q0 98 -69 160t-179 62q-147 0 -281 -109h-8l-178 55v11l92 804h831v-235h-606l-39 -348 q117 53 244 53q137 0 243.5 -59.5z" />
<glyph unicode="6" horiz-adv-x="1269" d="M936 857q113 -58 174 -163.5t61 -240.5q0 -141 -66.5 -250t-185 -168.5t-268.5 -59.5q-266 0 -409.5 184.5t-143.5 516.5q0 240 74 414t211 267t326 93q215 0 399 -115v-248h-8q-86 66 -186.5 100t-186.5 34q-141 0 -226 -99.5t-108 -287.5q63 43 132 62t151 19 q147 0 260 -58zM820.5 272.5q68.5 67.5 68.5 176.5q0 102 -62.5 168.5t-175.5 66.5q-125 0 -266 -82q10 -195 75.5 -296t186.5 -101q105 0 173.5 67.5z" />
<glyph unicode="7" horiz-adv-x="1269" d="M1133 1425v-137l-551 -1288h-248l-49 8l532 1182h-633v235h949z" />
<glyph unicode="8" horiz-adv-x="1269" d="M352 28.5q-125 53.5 -194.5 149.5t-69.5 217q0 117 64.5 209t162.5 129q-92 31 -146 123t-54 201q0 117 66.5 207t185 138t268.5 48q152 0 269.5 -48t184 -137t66.5 -206q0 -109 -55.5 -201t-147.5 -125q109 -39 169.5 -132t60.5 -206q0 -123 -70 -218t-193.5 -148.5 t-281.5 -53.5q-160 0 -285 53.5zM816.5 898q64.5 48 64.5 138t-63.5 139.5t-182.5 49.5t-182.5 -49.5t-63.5 -139.5t63.5 -138t182.5 -48q117 0 181.5 48zM833.5 258q69.5 55 69.5 154q0 100 -69.5 154.5t-198.5 54.5q-127 0 -197.5 -54.5t-70.5 -154.5t69.5 -154.5 t198.5 -54.5t198.5 55z" />
<glyph unicode="9" horiz-adv-x="1269" d="M1031 1272q136 -178 136 -527q0 -379 -157.5 -574.5t-462.5 -195.5q-106 0 -196.5 26t-184.5 85v252h8q86 -61 186.5 -94t194.5 -33q147 0 225 94t97 295q-121 -80 -289 -80q-225 0 -355.5 124t-130.5 331q0 145 64.5 252.5t183.5 165t275 57.5q270 0 406 -178z M448.5 814.5q63.5 -62.5 174.5 -62.5q127 0 258 84q-10 199 -73 290t-185 91q-109 0 -173.5 -62.5t-64.5 -171.5q0 -106 63.5 -168.5z" />
<glyph unicode=":" horiz-adv-x="532" d="M135 674q-53 51 -53 135t53 135t131 51t131.5 -51t53.5 -135t-53.5 -135t-131.5 -51t-131 51zM135 26.5q-53 51.5 -53 135.5t53 135t131 51t131.5 -51t53.5 -135t-53.5 -135.5t-131.5 -51.5t-131 51.5z" />
<glyph unicode=";" horiz-adv-x="532" d="M135 674q-53 51 -53 135t53 135t131 51t131.5 -51t53.5 -135t-53.5 -135t-131.5 -51t-131 51zM414 307q0 -137 -37 -282.5t-131 -331.5h-271q68 123 98.5 230.5t38 190.5t7.5 193h295z" />
<glyph unicode="&#x3c;" horiz-adv-x="1216" d="M1081 1200v-227l-663 -264l663 -265v-227l-946 393v197z" />
<glyph unicode="=" horiz-adv-x="1216" d="M1081 1008v-197h-901v197h901zM1081 582v-197h-901v197h901z" />
<glyph unicode="&#x3e;" horiz-adv-x="1216" d="M135 217v227l664 265l-664 264v227l946 -393v-197z" />
<glyph unicode="?" horiz-adv-x="1126" d="M315 535q0 117 39 193.5t94.5 120.5t139.5 91q90 51 132 91t42 110q0 90 -79 140t-208 50q-195 0 -377 -117h-8v242q178 113 402 113q154 0 276.5 -49.5t195 -145.5t72.5 -233q0 -98 -36.5 -165t-90 -107t-137.5 -85q-94 -51 -140 -94t-46 -115v-55h-271v15zM320.5 25.5 q-52.5 50.5 -52.5 132.5t52.5 132t128.5 50t128 -50t52 -132t-52.5 -132.5t-127.5 -50.5q-76 0 -128.5 50.5z" />
<glyph unicode="@" horiz-adv-x="1757" d="M1167 520q-8 -47 -8 -90q0 -68 33 -111t98 -43q78 0 133.5 67t55.5 206q0 160 -77 287t-212 199.5t-307 72.5q-180 0 -317.5 -80t-212 -222t-74.5 -325q0 -178 72.5 -309t205.5 -200.5t307 -69.5q205 0 418 108h8v-178q-188 -109 -422 -108q-229 0 -406 96t-274.5 269 t-97.5 398q0 229 99.5 411.5t280.5 286t415 103.5q233 0 411.5 -101.5t274.5 -268t96 -357.5q0 -141 -52 -243.5t-138 -155.5t-189 -53q-86 0 -160.5 36.5t-115.5 110.5q-66 -68 -137.5 -102.5t-143.5 -34.5q-111 0 -168 82t-57 227q0 121 40 233.5t123 184.5t205 72 q100 0 193 -54h152zM977 362q-4 33 -4 52q0 37 6 75l35 236q-74 25 -123 25q-104 0 -146.5 -89.5t-42.5 -216.5q0 -82 20.5 -116.5t76.5 -34.5q88 -1 178 69z" />
<glyph unicode="A" horiz-adv-x="1515" d="M1057 324h-608l-119 -324h-271l541 1425h315l541 -1425h-280zM973 553l-219 606l-222 -606h441z" />
<glyph unicode="B" horiz-adv-x="1433" d="M1231 608q57 -86 57 -209q0 -195 -141 -297t-410 -102h-526v1425h551q231 0 356 -97t125 -277q0 -215 -180 -310q111 -47 168 -133zM481 1188v-340h256q111 0 166 45t55 131q0 94 -48 129t-171 35h-258zM943.5 282q60.5 42 60.5 144q0 96 -65 141t-200 45h-258v-372h256 q146 0 206.5 42z" />
<glyph unicode="C" horiz-adv-x="1474" d="M509 65.5q-169 90.5 -258 257t-89 390.5q0 223 90 390t262 257t412 90q100 0 197.5 -19.5t174.5 -58.5v-250h-8q-78 45 -169 67.5t-173 22.5q-233 0 -367.5 -129t-134.5 -370q0 -240 131.5 -369t358.5 -129q88 0 179 27.5t175 79.5h8v-252q-164 -94 -385 -95 q-235 0 -404 90.5z" />
<glyph unicode="D" horiz-adv-x="1597" d="M1114 1338q158 -87 240 -247.5t82 -377.5t-82 -378t-240 -248t-377 -87h-526v1425h526q219 0 377 -87zM1041.5 360.5q109.5 120.5 109.5 352.5q0 231 -109.5 352t-304.5 121h-256v-946h256q195 0 304.5 120.5z" />
<glyph unicode="E" d="M481 1188v-357h615v-223h-615v-370h660v-238h-930v1425h930v-237h-660z" />
<glyph unicode="F" horiz-adv-x="1228" d="M481 1188v-379h531v-225h-531v-584h-270v1425h936v-237h-666z" />
<glyph unicode="G" horiz-adv-x="1597" d="M249 1102q87 168 252 258t390 90q129 0 231.5 -26.5t200.5 -73.5v-252h-8q-72 43 -177.5 72.5t-226.5 29.5q-465 0 -465 -489q0 -240 111 -363t324 -123q172 0 256 72v215h-271v225h541v-583q-164 -100 -282.5 -139.5t-252.5 -39.5q-225 0 -384.5 90.5t-242.5 255 t-83 386.5q0 227 87 395z" />
<glyph unicode="H" horiz-adv-x="1638" d="M1427 1425v-1425h-270v627h-676v-627h-270v1425h270v-559h676v559h270z" />
<glyph unicode="I" horiz-adv-x="655" d="M193 1425h270v-1425h-270v1425z" />
<glyph unicode="J" horiz-adv-x="901" d="M76 51v242q115 -74 227 -74q70 0 99.5 31t34.5 84t5 180v911h271v-987q0 -246 -97.5 -354.5t-273.5 -108.5q-143 0 -266 76z" />
<glyph unicode="K" horiz-adv-x="1433" d="M637 590l-156 -180v-410h-270v1425h270v-647l547 647h332l-539 -622l572 -803h-334z" />
<glyph unicode="L" horiz-adv-x="1187" d="M211 1425h270v-1187h600v-238h-870v1425z" />
<glyph unicode="M" horiz-adv-x="2007" d="M1796 0h-270v1083l-377 -1083h-283l-385 1081v-1081h-270v1425h424l377 -1056l366 1056h418v-1425z" />
<glyph unicode="N" horiz-adv-x="1638" d="M1427 1425v-1425h-270l-676 942v-942h-270v1425h270l676 -940v940h270z" />
<glyph unicode="O" horiz-adv-x="1720" d="M483.5 65.5q-157.5 90.5 -239.5 256t-82 391.5q0 225 82 391t239.5 256t376.5 90t377 -90t240 -256t82 -391t-82 -391t-240 -256.5t-377 -90.5t-376.5 90.5zM1163.5 351q110.5 126 110.5 362t-110.5 361.5t-303.5 125.5t-303.5 -126t-110.5 -361q0 -236 111 -362 t303 -126q193 0 303.5 126z" />
<glyph unicode="P" horiz-adv-x="1351" d="M211 1425h471q295 0 440.5 -119.5t145.5 -347.5q0 -229 -143.5 -356t-417.5 -127h-226v-475h-270v1425zM684 711q154 0 226.5 55t72.5 186q0 127 -71.5 180.5t-229.5 53.5h-201v-475h203z" />
<glyph unicode="Q" horiz-adv-x="1720" d="M1465.5 301q-93.5 -172 -269.5 -256l213 -393h-276l-179 328q-61 -4 -94 -5q-219 0 -376.5 90.5t-239.5 256t-82 391.5q0 225 82 391t239.5 256t376.5 90t377 -90t240 -256t82 -391q0 -240 -93.5 -412zM556 337q110 -130 304 -130q195 0 304.5 130t109.5 376t-109.5 376 t-304.5 130t-304.5 -130.5t-109.5 -375.5q0 -246 110 -376z" />
<glyph unicode="R" horiz-adv-x="1433" d="M1026 0l-291 543h-254v-543h-270v1425h514q276 0 413.5 -110.5t137.5 -321.5q0 -150 -67.5 -254t-200.5 -155l315 -584h-297zM481 780h246q135 0 199.5 47t64.5 160q0 109 -63.5 154t-202.5 45h-244v-406z" />
<glyph unicode="S" d="M410 6q-129 31 -244 84v262q266 -143 475 -143q104 0 168.5 45t64.5 127q0 57 -35.5 97t-89 65.5t-151.5 62.5q-133 49 -217 94t-143.5 128t-59.5 214q0 193 133 300.5t365 107.5q109 0 213 -23.5t192 -68.5v-256q-207 115 -399 115q-106 0 -166.5 -38t-60.5 -108 t62.5 -109.5t193.5 -87.5q137 -51 225 -98t152.5 -136t68.5 -230q0 -203 -137 -319t-367 -116q-114 0 -243 31z" />
<glyph unicode="T" d="M520 1178h-405v247h1081v-247h-405v-1178h-271v1178z" />
<glyph unicode="U" horiz-adv-x="1597" d="M352 139q-162 164 -162 451v835h271v-829q0 -197 88 -290t250 -93q164 0 251 95t87 288v829h270v-835q0 -287 -162 -451t-446 -164q-285 0 -447 164z" />
<glyph unicode="V" horiz-adv-x="1433" d="M1395 1425l-521 -1425h-315l-520 1425h293l391 -1138l389 1138h283z" />
<glyph unicode="W" horiz-adv-x="2170" d="M2152 1425l-448 -1425h-315l-304 1024l-303 -1024h-315l-449 1425h293l318 -1095l313 1095h297l313 -1095l318 1095h282z" />
<glyph unicode="X" horiz-adv-x="1433" d="M1073 0l-362 522l-357 -522h-291l506 727l-481 698h297l338 -487l332 487h291l-482 -692l506 -733h-297z" />
<glyph unicode="Y" horiz-adv-x="1351" d="M1329 1425l-518 -933v-492h-270v492l-518 933h288l367 -692l373 692h278z" />
<glyph unicode="Z" horiz-adv-x="1351" d="M1243 223v-223h-1134v201l749 1001h-704v223h1044v-200l-745 -1002h790z" />
<glyph unicode="[" horiz-adv-x="811" d="M721 1663v-223h-270v-1454h270v-224h-541v1901h541z" />
<glyph unicode="\" horiz-adv-x="720" d="M0 1544h254l467 -2019h-252z" />
<glyph unicode="]" horiz-adv-x="811" d="M90 -238v224h270v1454h-270v223h541v-1901h-541z" />
<glyph unicode="^" horiz-adv-x="991" d="M803 401l-307 351l-308 -351l-143 105l369 549h164l368 -549z" />
<glyph unicode="_" horiz-adv-x="1228" d="M1133 -41v-217h-1037v217h1037z" />
<glyph unicode="`" horiz-adv-x="720" d="M-76 1602h312l233 -322h-258z" />
<glyph unicode="a" horiz-adv-x="1187" d="M836 0l-27 129q-145 -154 -350 -154q-162 0 -263.5 84t-101.5 222q0 178 132 277t382 99q90 0 180 -8v39q0 90 -51 134t-162 44q-109 0 -201.5 -35.5t-201.5 -115.5v241q94 72 196.5 105t225.5 33q227 0 347 -97.5t120 -283.5v-475l45 -238h-270zM500 182q78 0 147.5 32 t140.5 101v146h-196q-119 0 -173 -35t-54 -125q0 -119 135 -119z" />
<glyph unicode="b" d="M980 1024q101 -70 158.5 -198t57.5 -296q0 -260 -134 -406.5t-366 -146.5q-68 0 -127 14.5t-135 51.5v-43h-270v1544h270v-579q129 129 311 129q134 0 235 -70zM854 282.5q57 77.5 57 252.5q0 166 -47 245.5t-147 79.5q-143 0 -283 -131v-500q55 -16 108.5 -20t127.5 -4 q127 0 184 77.5z" />
<glyph unicode="c" horiz-adv-x="1105" d="M378 44q-126 69 -193.5 193.5t-67.5 292.5t69.5 296t195.5 198t290 70q184 0 311 -76v-238h-8q-68 41 -146.5 61.5t-146.5 20.5q-141 0 -213 -84t-72 -248q0 -324 281 -323q74 0 150.5 23.5t146.5 66.5h8v-242q-131 -80 -311 -80q-168 0 -294 69z" />
<glyph unicode="d" d="M938 0l-41 143q-74 -80 -171 -123t-204 -43q-188 0 -297.5 147.5t-109.5 401.5q0 268 126 418t355 150q147 0 274 -64v514h271v-1306l45 -238h-248zM448.5 285q49.5 -86 145.5 -86q135 0 276 135v506q-119 31 -217 30q-131 0 -192.5 -82.5t-61.5 -257.5q0 -159 49.5 -245 z" />
<glyph unicode="e" horiz-adv-x="1228" d="M1126 453h-743q16 -123 91 -188.5t200 -65.5q92 0 199.5 33.5t199.5 93.5h8v-220q-82 -63 -187.5 -97t-221.5 -34q-168 0 -293 68t-192.5 195t-67.5 297q0 166 64.5 292.5t181 196.5t270.5 70q150 0 261.5 -68t170.5 -194.5t59 -296.5v-82zM474.5 813.5 q-64.5 -63.5 -87.5 -176.5h461q-16 117 -69.5 178.5t-143.5 61.5q-96 0 -160.5 -63.5z" />
<glyph unicode="f" horiz-adv-x="737" d="M207 868h-160v201h160v123q0 190 88 283.5t256 93.5q63 0 108.5 -12.5t88.5 -36.5v-224q-90 47 -162 47q-59 0 -84 -33.5t-25 -117.5v-123h250v-201h-250v-868h-270v868z" />
<glyph unicode="g" horiz-adv-x="1269" d="M1171 1069l-45 -235v-834q0 -244 -143 -372t-391 -128q-131 0 -235.5 35t-200.5 94v254q193 -147 413 -147q287 0 287 264v84q-127 -70 -278 -70q-215 0 -339 142.5t-124 392.5q0 254 130 399.5t353 145.5q72 0 137.5 -15.5t155.5 -52.5l10 43h270zM856 330v512 q-53 16 -105.5 20t-125.5 4q-119 0 -172.5 -75.5t-53.5 -241.5q0 -158 45 -229.5t144 -71.5q129 0 268 82z" />
<glyph unicode="h" d="M1029 998.5q99 -95.5 99 -250.5v-748h-270v594q0 139 -42 199.5t-138 60.5q-109 0 -225 -121v-733h-271v1544h271v-586q80 72 154.5 104t160.5 32q162 0 261 -95.5z" />
<glyph unicode="i" horiz-adv-x="573" d="M168 1276q-49 47 -49 123t49 123t119 47t119 -47t49 -123t-49.5 -123t-118.5 -47q-70 0 -119 47zM422 1069v-1069h-270v1067z" />
<glyph unicode="j" horiz-adv-x="573" d="M180 1276q-49 47 -49 123t49 123t119 47t119 -47t49 -123t-49 -123t-119 -47t-119 47zM-59.5 -486.5q-49.5 13.5 -92.5 44.5v223q47 -31 92.5 -43t98.5 -12q66 0 95.5 34.5t29.5 116.5v1192h270v-1192q0 -377 -371 -377q-73 0 -122.5 13.5z" />
<glyph unicode="k" horiz-adv-x="1187" d="M573 449l-122 -136v-313h-271v1544h271v-905l372 430h307l-389 -432l414 -637h-309z" />
<glyph unicode="l" horiz-adv-x="573" d="M152 1544h270v-1544h-270v1544z" />
<glyph unicode="m" horiz-adv-x="1925" d="M1649.5 998.5q93.5 -95.5 93.5 -250.5v-748h-270v594q0 139 -37 199.5t-123 60.5q-104 0 -215 -117v-737h-271v594q0 139 -36.5 199.5t-122.5 60.5q-104 0 -215 -117v-737h-271v831l-45 238h248l39 -137q82 86 162 124t172 38q102 0 181 -46.5t120 -125.5q86 92 167 132 t177 40q153 0 246.5 -95.5z" />
<glyph unicode="n" d="M1029 998.5q99 -95.5 99 -250.5v-748h-270v594q0 139 -42 199.5t-138 60.5q-106 0 -225 -119v-735h-271v831l-45 238h248l39 -137q88 86 170 124t174 38q162 0 261 -95.5z" />
<glyph unicode="o" d="M371 44q-123 69 -189.5 196t-66.5 295t66.5 294.5t189.5 195.5t284 69q162 0 285 -69t189.5 -196t66.5 -294q0 -168 -66.5 -295t-189.5 -196t-285 -69q-161 0 -284 69zM843.5 286q67.5 87 67.5 249q0 164 -67.5 249.5t-188.5 85.5t-188.5 -86t-67.5 -249q0 -162 68 -249 t188 -87q121 0 188.5 87z" />
<glyph unicode="p" d="M998.5 1023q93.5 -69 145.5 -192.5t52 -285.5q0 -160 -61.5 -290t-169 -205t-242.5 -75q-164 0 -291 68v-518h-270v1306l-45 238h248l43 -151q74 84 172 129t204 45q121 0 214.5 -69zM911 541q0 158 -48 243.5t-140 85.5q-147 0 -291 -143v-496q131 -33 236 -32 q243 0 243 342z" />
<glyph unicode="q" d="M1202 1071l-45 -237v-1307h-270v539q-125 -88 -275 -89q-242 0 -369.5 151t-127.5 435q0 160 62.5 280t178 185.5t269.5 65.5q68 0 135 -17.5t160 -60.5l12 55h270zM887 299v539q-88 29 -244 28q-125 0 -184.5 -73.5t-59.5 -229.5q0 -186 50.5 -269t162.5 -83 q132 0 275 88z" />
<glyph unicode="r" horiz-adv-x="860" d="M752 1094v-267h-35q-160 0 -260 -88v-739h-271v831l-45 238h271l26 -141q68 92 123 129t123 37h68z" />
<glyph unicode="s" horiz-adv-x="1024" d="M284.5 5q-102.5 30 -192.5 85v256q98 -74 186.5 -108.5t190.5 -34.5q104 0 154.5 26.5t50.5 81.5q0 53 -48 79t-153 50q-115 29 -186.5 58.5t-123.5 97.5t-52 182q0 143 117.5 229.5t316.5 86.5q96 0 178 -21.5t168 -71.5v-249q-88 61 -164 87.5t-162 26.5 q-94 0 -145 -23.5t-51 -68.5t44 -66.5t140 -43.5q115 -25 191.5 -57t132 -102.5t55.5 -195.5q0 -96 -55.5 -173t-155.5 -119t-227 -42q-107 0 -209.5 30z" />
<glyph unicode="t" horiz-adv-x="819" d="M481 1069h246v-201h-246v-516q0 -156 119 -155q55 0 129 39v-224q-51 -18 -95 -27.5t-99 -9.5q-324 0 -324 377v516h-156v201h156v287l270 94v-381z" />
<glyph unicode="u" d="M918 0l-39 139q-104 -92 -183.5 -128t-179.5 -36q-96 0 -175 45.5t-123 124t-44 177.5v747h270v-594q0 -129 41 -194.5t119 -65.5q66 0 123 28.5t123 92.5v733h270v-831l45 -238h-247z" />
<glyph unicode="v" horiz-adv-x="1146" d="M1137 1069l-396 -1069h-335l-396 1069h275l293 -844l292 844h267z" />
<glyph unicode="w" horiz-adv-x="1761" d="M1735 1069l-326 -1069h-324l-206 717l-203 -717h-324l-327 1069h274l225 -793l221 793h275l225 -795l223 795h267z" />
<glyph unicode="x" horiz-adv-x="1146" d="M860 0l-299 385l-289 -385h-284l434 565l-389 504h299l254 -328l243 328h285l-389 -508l434 -561h-299z" />
<glyph unicode="y" horiz-adv-x="1146" d="M1137 1069l-613 -1544h-256l174 440l-432 1104h275l297 -782l284 782h271z" />
<glyph unicode="z" horiz-adv-x="1064" d="M989 209v-209h-913v188l516 672h-471v209h825v-188l-516 -672h559z" />
<glyph unicode="{" horiz-adv-x="856" d="M505 822q-48 -77 -136 -111q86 -33 135 -111t49 -176v-219q0 -90 39 -154.5t108 -64.5h66v-224h-174q-88 0 -156.5 51.5t-105.5 135.5t-37 182v272q0 104 -51.5 157.5t-151.5 53.5v195q100 0 151.5 53t51.5 158v274q0 98 38 182.5t106.5 135.5t156.5 51h172v-223h-66 q-70 0 -108.5 -64.5t-38.5 -154.5v-222q0 -100 -48 -177z" />
<glyph unicode="|" horiz-adv-x="630" d="M451 1663v-1901h-271v1901h271z" />
<glyph unicode="}" horiz-adv-x="856" d="M90 -14h66q70 0 108.5 64.5t38.5 154.5v221q0 100 48 177t136 112q-86 33 -135 110.5t-49 175.5v220q0 90 -39 154.5t-108 64.5h-66v223h174q88 0 156.5 -51t105.5 -135t37 -183v-272q0 -104 51.5 -157.5t151.5 -53.5v-195q-100 0 -151.5 -53t-51.5 -157v-275 q0 -98 -38 -182t-106.5 -135.5t-156.5 -51.5h-172v224z" />
<glyph unicode="~" horiz-adv-x="1081" d="M631 502.5q-45 13.5 -103 38.5q-68 25 -103.5 36t-80.5 11q-135 0 -254 -99v222q129 109 264 108q49 0 92 -12t105 -37q61 -25 100 -37t86 -12q135 0 254 76v-222q-123 -86 -264 -86q-51 0 -96 13.5z" />
<glyph unicode="&#xa1;" horiz-adv-x="630" d="M187.5 779q-52.5 50 -52.5 132t52.5 132.5t127.5 50.5q76 0 128.5 -50.5t52.5 -132.5t-52.5 -132t-128.5 -50q-75 0 -127.5 50zM180 549h271v-1024h-271v1024z" />
<glyph unicode="&#xa2;" horiz-adv-x="1216" d="M1081 106q-68 -59 -142.5 -89.5t-166.5 -39.5v-215h-168v218q-160 18 -275.5 92.5t-177 192.5t-61.5 265q0 150 61.5 270t177 195.5t275.5 91.5v220h168v-215q86 -6 154.5 -30t132.5 -73v-241h-8q-129 96 -279 110v-647q86 10 157.5 44t143.5 93h8v-242zM431.5 326 q60.5 -84 172.5 -109v635q-113 -27 -173 -114t-60 -210q0 -118 60.5 -202z" />
<glyph unicode="&#xa3;" horiz-adv-x="1216" d="M1126 240v-240h-1036v240h152v381h-152v210h152v152q0 219 117.5 343t332.5 124q211 0 361 -125v-248h-9q-160 147 -327 148q-109 0 -157 -61.5t-48 -186.5v-146h344v-210h-344v-381h614z" />
<glyph unicode="&#xa4;" horiz-adv-x="1216" d="M1014 418l170 -168l-146 -146l-168 170q-117 -68 -260 -67q-147 0 -260 67l-170 -170l-145 146l168 168q-66 115 -66 256q0 150 70 264l-172 170l145 145l170 -172q111 70 260 70q145 0 258 -68l170 170l146 -145l-172 -172q68 -117 67 -262q1 -147 -65 -256zM431 489.5 q71 -73.5 179 -73.5q109 0 176.5 72.5t67.5 191.5q0 117 -67.5 185.5t-176.5 68.5t-179.5 -68.5t-70.5 -185.5t71 -190.5z" />
<glyph unicode="&#xa5;" horiz-adv-x="1216" d="M825 651h211v-188h-293v-107h293v-188h-293v-168h-270v168h-293v188h293v107h-293v188h211l-391 774h301l307 -673l318 673h291z" />
<glyph unicode="&#xa6;" horiz-adv-x="630" d="M451 1663v-832h-271v832h271zM451 596v-834h-271v834h271z" />
<glyph unicode="&#xa7;" horiz-adv-x="1126" d="M429.5 1182q-62.5 -35 -62.5 -95q0 -63 60 -101t194 -87q129 -47 211.5 -91t143 -122t60.5 -194q0 -147 -75 -252q76 -88 75 -226q0 -180 -130 -275t-367 -95q-119 0 -235 23.5t-214 68.5v256q223 -115 445 -115q225 0 225 119q0 45 -33 79t-81 56.5t-142 58.5 q-129 47 -212 91.5t-142.5 123t-59.5 197.5q0 147 74 248q-74 94 -74 225q0 184 131 279.5t369 95.5q240 0 448 -92v-256q-113 59 -226.5 87t-209.5 28q-110 0 -172.5 -35zM723 521q-35 40 -87 65.5t-147 64.5l-112 47q-8 -23 -8 -51q0 -55 34.5 -94t88 -64.5t149.5 -62.5 q68 -25 111 -43q6 18 6 43q0 55 -35 95z" />
<glyph unicode="&#xa8;" horiz-adv-x="991" d="M187 1292q-44 43 -44 109t44 108.5t106 42.5q61 0 105 -43t44 -108q0 -66 -44 -109t-105 -43q-62 0 -106 43zM593 1292q-44 43 -44 109t44 108.5t105 42.5t105.5 -43t44.5 -108q0 -66 -44 -109t-106 -43q-61 0 -105 43z" />
<glyph unicode="&#xa9;" horiz-adv-x="1757" d="M231.5 1091q96.5 169 267.5 264t388 95q213 0 380 -95t261 -264t94 -386q0 -213 -94 -379t-261 -258.5t-380 -92.5q-217 0 -388 92.5t-267.5 258.5t-96.5 379q0 217 96.5 386zM406.5 418q70.5 -125 195.5 -193.5t285 -68.5q154 0 275.5 68.5t190 193.5t68.5 287 q0 166 -68.5 293.5t-190.5 199.5t-275 72q-160 0 -285 -72t-195.5 -200t-70.5 -293q0 -162 70.5 -287zM778 866.5q-43 -61.5 -43 -157.5q0 -92 43 -151.5t121 -59.5q76 0 135.5 26.5t114.5 81.5h8v-223q-57 -55 -124.5 -77.5t-153.5 -22.5q-176 0 -278.5 119.5t-102.5 308.5 q0 125 46 223t133 153.5t204 55.5q82 0 143 -16.5t117 -63.5v-223h-8q-53 47 -107.5 67.5t-124.5 20.5q-80 0 -123 -61.5z" />
<glyph unicode="&#xaa;" horiz-adv-x="675" d="M481 874l-22 60q-78 -74 -178 -74q-98 0 -155.5 48t-57.5 130q0 178 303 179q39 0 63 -3v21q0 33 -25.5 53.5t-76.5 20.5q-102 0 -217 -70v150q96 61 231 61q123 0 192.5 -55.5t69.5 -147.5v-248l23 -125h-150zM309 995q61 0 125 37v68h-84q-43 0 -71.5 -16.5 t-28.5 -47.5q0 -41 59 -41z" />
<glyph unicode="&#xab;" horiz-adv-x="1171" d="M635 119h-313l-322 420v8l342 403h293l-330 -403v-8zM1171 119h-313l-321 420v8l342 403h292l-329 -403v-8z" />
<glyph unicode="&#xac;" horiz-adv-x="1126" d="M1036 786v-503h-270v280h-631v223h901z" />
<glyph unicode="&#xad;" horiz-adv-x="819" d="M676 662v-218h-533v218h533z" />
<glyph unicode="&#xae;" horiz-adv-x="1396" d="M993 1378.5q127 -71.5 198 -199.5t71 -292t-71 -290t-198 -195.5t-291 -69.5t-292.5 69.5t-201.5 196.5t-73 289t73 291t202 200.5t292 71.5q164 0 291 -71.5zM1002.5 582.5q113.5 113.5 113.5 304.5q0 127 -52 224t-146.5 150.5t-215.5 53.5q-123 0 -218 -53.5 t-148 -150.5t-53 -224q0 -125 53 -220.5t148.5 -146.5t217.5 -51q187 0 300.5 113.5zM938 882.5q-31 -51.5 -88 -75.5l117 -219h-160l-105 196h-71v-196h-144v614h236q246 0 246 -198q0 -70 -31 -121.5zM631 922h92q51 0 74.5 17t23.5 56t-22.5 53.5t-75.5 14.5h-92v-141z " />
<glyph unicode="&#xaf;" horiz-adv-x="946" d="M782 1503v-205h-618v205h618z" />
<glyph unicode="&#xb0;" horiz-adv-x="765" d="M172 1365q82 83 213 83q129 0 210 -83t81 -214q0 -129 -81 -210t-210 -81q-131 0 -213 81t-82 210q0 131 82 214zM295 1061q35 -37 90 -37q53 0 86 37t33 94t-33 92t-86 35q-55 0 -90 -35t-35 -92t35 -94z" />
<glyph unicode="&#xb1;" horiz-adv-x="1216" d="M1081 336v-217h-946v217h946zM1081 813h-354v-395h-238v395h-354v217h354v395h238v-395h354v-217z" />
<glyph unicode="&#xb2;" horiz-adv-x="837" d="M743 995v-180h-649v162l279 235q131 113 131 195q0 39 -31 55.5t-96 16.5q-133 0 -256 -68v186q129 59 266 60q154 0 243 -61.5t89 -178.5q0 -119 -125 -239l-193 -183h342z" />
<glyph unicode="&#xb3;" horiz-adv-x="839" d="M726 1161q32 -53 32 -114q0 -115 -103.5 -180.5t-271.5 -65.5q-160 0 -301 67v201h6q143 -90 285 -90q166 0 166 76q0 45 -51.5 75.5t-135.5 30.5h-55v170h55q78 0 124 24.5t46 65.5q0 55 -141 56q-123 0 -268 -74h-4v194q133 59 280 60q160 0 254 -59.5t94 -163.5 q0 -55 -26.5 -102.5t-75.5 -82.5q59 -35 91 -88z" />
<glyph unicode="&#xb4;" horiz-adv-x="720" d="M485 1602h295l-286 -402h-242z" />
<glyph unicode="&#xb5;" horiz-adv-x="1261" d="M135 1069h271v-649q0 -109 39.5 -162t129.5 -53q141 0 236 135v729h270v-831l45 -238h-225l-41 139q-66 -86 -137.5 -125t-155.5 -39q-74 0 -121 28t-81 77l41 -436h-271v1425z" />
<glyph unicode="&#xb6;" horiz-adv-x="1396" d="M631 -238v713h-68q-254 0 -386 124t-132 359q0 467 533 467h323v-1663h-270zM1307 1425v-1663h-271v1663h271z" />
<glyph unicode="&#xb7;" horiz-adv-x="409" d="M73.5 399.5q-53.5 51.5 -53.5 135.5t53.5 135t131.5 51t131 -51.5t53 -134.5q0 -84 -53 -135.5t-131 -51.5t-131.5 51.5z" />
<glyph unicode="&#xb8;" horiz-adv-x="634" d="M82 -446v174h8q96 -51 178 -52q49 0 76 22.5t27 63.5q0 53 -43 115t-119 123l217 53q143 -176 143 -321q0 -113 -79.5 -172.5t-196.5 -59.5q-107 1 -211 54z" />
<glyph unicode="&#xb9;" horiz-adv-x="839" d="M758 995v-180h-676v180h254v414l-162 -49h-6l-45 137v4l280 141h146v-647h209z" />
<glyph unicode="&#xba;" horiz-adv-x="720" d="M144.5 941q-76.5 81 -76.5 214t76.5 214t215.5 81t216 -81t77 -214t-76.5 -214t-216.5 -81q-139 0 -215.5 81zM444.5 1042q26.5 43 26.5 113t-27.5 113t-81.5 43q-57 0 -84.5 -44t-27.5 -112q0 -70 27.5 -113t84.5 -43q56 0 82.5 43z" />
<glyph unicode="&#xbb;" horiz-adv-x="1171" d="M0 950h313l322 -420v-8l-342 -403h-293l330 403v8zM537 950h313l321 -420v-8l-342 -403h-292l329 403v8z" />
<glyph unicode="&#xbc;" horiz-adv-x="2250" d="M758 791v-181h-676v181h254v413l-162 -49h-6l-45 137v4l280 142h146v-647h209zM1674 1425l-848 -1425h-246l848 1425h246zM2191 154h-119v-166h-213v166h-407v168h2l405 493h213v-485h119v-176zM1859 330v219l-157 -219h157z" />
<glyph unicode="&#xbd;" horiz-adv-x="2250" d="M758 791v-181h-676v181h254v413l-162 -49h-6l-45 137v4l280 142h146v-647h209zM1674 1425l-848 -1425h-246l848 1425h246zM2156 168v-180h-649v162l279 235q131 113 131 195q0 39 -31 55t-96 16q-133 0 -256 -67v186q129 59 266 59q154 0 243 -61t89 -178 q0 -119 -125 -240l-193 -182h342z" />
<glyph unicode="&#xbe;" horiz-adv-x="2250" d="M726 956.5q32 -53.5 32 -114.5q0 -115 -103.5 -180.5t-271.5 -65.5q-160 0 -301 68v200h6q143 -90 285 -90q166 0 166 76q0 45 -51.5 75.5t-135.5 30.5h-55v170h55q78 0 124 25t46 66q0 55 -141 55q-123 0 -268 -74h-4v195q133 59 280 59q160 0 254 -59.5t94 -163.5 q0 -55 -26.5 -102.5t-75.5 -82.5q59 -34 91 -87.5zM1674 1425l-848 -1425h-246l848 1425h246zM2191 154h-119v-166h-213v166h-407v168h2l405 493h213v-485h119v-176zM1859 330v219l-157 -219h157z" />
<glyph unicode="&#xbf;" horiz-adv-x="1126" d="M806 1041.5q52 -50.5 52 -132.5t-52 -132t-128 -50t-128 50t-52 132t52 132.5t128 50.5t128 -50.5zM811 532q0 -117 -39 -193.5t-94 -120.5t-139 -91q-90 -51 -132 -91t-42 -110q0 -90 78.5 -140t207.5 -50q195 0 377 117h8v-242q-178 -113 -401 -113q-154 0 -276.5 49.5 t-195.5 145.5t-73 233q0 98 37 165t90 107t137 85q94 51 140.5 94t46.5 115v55h270v-15z" />
<glyph unicode="&#xc0;" horiz-adv-x="1515" d="M1057 324h-608l-119 -324h-271l541 1425h315l541 -1425h-280zM973 553l-219 606l-222 -606h441zM632 1602l-288 299h311l213 -299h-236z" />
<glyph unicode="&#xc1;" horiz-adv-x="1515" d="M1057 324h-608l-119 -324h-271l541 1425h315l541 -1425h-280zM973 553l-219 606l-222 -606h441zM852 1901h311l-289 -299h-235z" />
<glyph unicode="&#xc2;" horiz-adv-x="1515" d="M1057 324h-608l-119 -324h-271l541 1425h315l541 -1425h-280zM973 553l-219 606l-222 -606h441zM626 1901h262l193 -402h-203l-123 225l-118 -225h-203z" />
<glyph unicode="&#xc3;" horiz-adv-x="1515" d="M1057 324h-608l-119 -324h-271l541 1425h315l541 -1425h-280zM973 553l-219 606l-222 -606h441zM826.5 1596.5q-33.5 13.5 -78.5 37.5q-51 27 -79 37t-63 10q-96 0 -186 -98v193q94 109 197 108q39 0 72.5 -13t78.5 -38q51 -27 79 -37t62 -10q96 0 187 76v-193 q-94 -86 -197 -86q-39 0 -72.5 13.5z" />
<glyph unicode="&#xc4;" horiz-adv-x="1515" d="M1057 324h-608l-119 -324h-271l541 1425h315l541 -1425h-280zM973 553l-219 606l-222 -606h441zM449 1620q-44 43 -44 109t44 108.5t106 42.5q61 0 105 -43t44 -108q0 -66 -44 -109t-105 -43q-62 0 -106 43zM855 1620q-44 43 -44 109t44 108.5t105 42.5t105.5 -43 t44.5 -108q0 -66 -44 -109t-106 -43q-61 0 -105 43z" />
<glyph unicode="&#xc5;" horiz-adv-x="1515" d="M1057 324h-608l-119 -324h-271l541 1425h315l541 -1425h-280zM973 553l-219 606l-222 -606h441zM597.5 1835q65.5 66 160.5 66q94 0 159.5 -66t65.5 -160t-65.5 -159.5t-159.5 -65.5t-160 65.5t-66 159.5t65.5 160zM695.5 1611.5q25.5 -26.5 62.5 -26.5t61.5 26.5 t24.5 63.5q0 39 -25 63.5t-61 24.5q-39 0 -63.5 -24.5t-24.5 -63.5q0 -37 25.5 -63.5z" />
<glyph unicode="&#xc6;" horiz-adv-x="2007" d="M520 330l-174 -330h-287l740 1425h1038v-237h-584v-354h539v-226h-539v-370h584v-238h-854v330h-463zM983 1219l-350 -668h350v668z" />
<glyph unicode="&#xc7;" horiz-adv-x="1474" d="M580.5 1083q-134.5 -129 -134.5 -370q0 -240 131.5 -369t358.5 -129q88 0 179 27.5t175 79.5h8v-252q-137 -80 -325 -93q88 -133 88 -245q0 -113 -80 -172.5t-197 -59.5q-106 0 -211 54v174h9q96 -51 178 -52q49 0 75.5 22.5t26.5 63.5q0 51 -42 113t-115 121 q-258 55 -400.5 243.5t-142.5 473.5q0 223 90 390t262 257t412 90q100 0 197.5 -19.5t174.5 -58.5v-250h-8q-78 45 -169 67.5t-173 22.5q-233 0 -367.5 -129z" />
<glyph unicode="&#xc8;" d="M481 1188v-357h615v-223h-615v-370h660v-238h-930v1425h930v-237h-660zM569 1602l-288 299h311l213 -299h-236z" />
<glyph unicode="&#xc9;" d="M481 1188v-357h615v-223h-615v-370h660v-238h-930v1425h930v-237h-660zM789 1901h311l-289 -299h-235z" />
<glyph unicode="&#xca;" d="M481 1188v-357h615v-223h-615v-370h660v-238h-930v1425h930v-237h-660zM563 1901h262l193 -402h-203l-123 225l-118 -225h-203z" />
<glyph unicode="&#xcb;" d="M481 1188v-357h615v-223h-615v-370h660v-238h-930v1425h930v-237h-660zM386 1620q-44 43 -44 109t44 108.5t106 42.5q61 0 105 -43t44 -108q0 -66 -44 -109t-105 -43q-62 0 -106 43zM792 1620q-44 43 -44 109t44 108.5t105 42.5t105.5 -43t44.5 -108q0 -66 -44 -109 t-106 -43q-61 0 -105 43z" />
<glyph unicode="&#xcc;" horiz-adv-x="655" d="M193 1425h270v-1425h-270v1425zM202 1602l-288 299h311l213 -299h-236z" />
<glyph unicode="&#xcd;" horiz-adv-x="655" d="M193 1425h270v-1425h-270v1425zM422 1901h311l-289 -299h-235z" />
<glyph unicode="&#xce;" horiz-adv-x="655" d="M193 1425h270v-1425h-270v1425zM196 1901h262l193 -402h-203l-123 225l-118 -225h-203z" />
<glyph unicode="&#xcf;" horiz-adv-x="655" d="M193 1425h270v-1425h-270v1425zM19 1620q-44 43 -44 109t44 108.5t106 42.5q61 0 105 -43t44 -108q0 -66 -44 -109t-105 -43q-62 0 -106 43zM425 1620q-44 43 -44 109t44 108.5t105 42.5t105.5 -43t44.5 -108q0 -66 -44 -109t-106 -43q-61 0 -105 43z" />
<glyph unicode="&#xd0;" horiz-adv-x="1597" d="M1114 1338q158 -87 240 -247.5t82 -377.5t-82 -378t-240 -248t-377 -87h-526v604h-152v217h152v604h526q219 0 377 -87zM1041.5 360.5q109.5 120.5 109.5 352.5q0 231 -109.5 352t-304.5 121h-256v-365h152v-217h-152v-364h256q195 0 304.5 120.5z" />
<glyph unicode="&#xd1;" horiz-adv-x="1638" d="M1427 1425v-1425h-270l-676 942v-942h-270v1425h270l676 -940v940h270zM887.5 1596.5q-33.5 13.5 -78.5 37.5q-51 27 -79 37t-63 10q-96 0 -186 -98v193q94 109 197 108q39 0 72.5 -13t78.5 -38q51 -27 79 -37t62 -10q96 0 187 76v-193q-94 -86 -197 -86 q-39 0 -72.5 13.5z" />
<glyph unicode="&#xd2;" horiz-adv-x="1720" d="M483.5 65.5q-157.5 90.5 -239.5 256t-82 391.5q0 225 82 391t239.5 256t376.5 90t377 -90t240 -256t82 -391t-82 -391t-240 -256.5t-377 -90.5t-376.5 90.5zM1163.5 351q110.5 126 110.5 362t-110.5 361.5t-303.5 125.5t-303.5 -126t-110.5 -361q0 -236 111 -362 t303 -126q193 0 303.5 126zM735 1602l-288 299h311l213 -299h-236z" />
<glyph unicode="&#xd3;" horiz-adv-x="1720" d="M483.5 65.5q-157.5 90.5 -239.5 256t-82 391.5q0 225 82 391t239.5 256t376.5 90t377 -90t240 -256t82 -391t-82 -391t-240 -256.5t-377 -90.5t-376.5 90.5zM1163.5 351q110.5 126 110.5 362t-110.5 361.5t-303.5 125.5t-303.5 -126t-110.5 -361q0 -236 111 -362 t303 -126q193 0 303.5 126zM955 1901h311l-289 -299h-235z" />
<glyph unicode="&#xd4;" horiz-adv-x="1720" d="M483.5 65.5q-157.5 90.5 -239.5 256t-82 391.5q0 225 82 391t239.5 256t376.5 90t377 -90t240 -256t82 -391t-82 -391t-240 -256.5t-377 -90.5t-376.5 90.5zM1163.5 351q110.5 126 110.5 362t-110.5 361.5t-303.5 125.5t-303.5 -126t-110.5 -361q0 -236 111 -362 t303 -126q193 0 303.5 126zM729 1901h262l193 -402h-203l-123 225l-118 -225h-203z" />
<glyph unicode="&#xd5;" horiz-adv-x="1720" d="M483.5 65.5q-157.5 90.5 -239.5 256t-82 391.5q0 225 82 391t239.5 256t376.5 90t377 -90t240 -256t82 -391t-82 -391t-240 -256.5t-377 -90.5t-376.5 90.5zM1163.5 351q110.5 126 110.5 362t-110.5 361.5t-303.5 125.5t-303.5 -126t-110.5 -361q0 -236 111 -362 t303 -126q193 0 303.5 126zM928.5 1596.5q-33.5 13.5 -78.5 37.5q-51 27 -79 37t-63 10q-96 0 -186 -98v193q94 109 197 108q39 0 72.5 -13t78.5 -38q51 -27 79 -37t62 -10q96 0 187 76v-193q-94 -86 -197 -86q-39 0 -72.5 13.5z" />
<glyph unicode="&#xd6;" horiz-adv-x="1720" d="M483.5 65.5q-157.5 90.5 -239.5 256t-82 391.5q0 225 82 391t239.5 256t376.5 90t377 -90t240 -256t82 -391t-82 -391t-240 -256.5t-377 -90.5t-376.5 90.5zM1163.5 351q110.5 126 110.5 362t-110.5 361.5t-303.5 125.5t-303.5 -126t-110.5 -361q0 -236 111 -362 t303 -126q193 0 303.5 126zM552 1620q-44 43 -44 109t44 108.5t106 42.5q61 0 105 -43t44 -108q0 -66 -44 -109t-105 -43q-62 0 -106 43zM958 1620q-44 43 -44 109t44 108.5t105 42.5t105.5 -43t44.5 -108q0 -66 -44 -109t-106 -43q-61 0 -105 43z" />
<glyph unicode="&#xd7;" horiz-adv-x="1216" d="M774 721l322 -340l-170 -170l-318 336l-317 -336l-170 170l321 340l-321 340l170 170l317 -336l318 336l170 -170z" />
<glyph unicode="&#xd8;" horiz-adv-x="1720" d="M1419 1198q139 -193 140 -485q0 -225 -82 -391t-240 -256.5t-377 -90.5t-377 91l-53 -66h-315l186 227q-139 193 -139 486q0 225 82 391t239.5 256t376.5 90t377 -90l53 65h316zM492 457l573 696q-88 47 -205 47q-193 0 -303.5 -126t-110.5 -361q1 -143 46 -256z M1229 969l-574 -697q88 -47 205 -47q193 0 303.5 126t110.5 362q0 143 -45 256z" />
<glyph unicode="&#xd9;" horiz-adv-x="1597" d="M352 139q-162 164 -162 451v835h271v-829q0 -197 88 -290t250 -93q164 0 251 95t87 288v829h270v-835q0 -287 -162 -451t-446 -164q-285 0 -447 164zM673 1602l-288 299h311l213 -299h-236z" />
<glyph unicode="&#xda;" horiz-adv-x="1597" d="M352 139q-162 164 -162 451v835h271v-829q0 -197 88 -290t250 -93q164 0 251 95t87 288v829h270v-835q0 -287 -162 -451t-446 -164q-285 0 -447 164zM893 1901h311l-289 -299h-235z" />
<glyph unicode="&#xdb;" horiz-adv-x="1597" d="M352 139q-162 164 -162 451v835h271v-829q0 -197 88 -290t250 -93q164 0 251 95t87 288v829h270v-835q0 -287 -162 -451t-446 -164q-285 0 -447 164zM667 1901h262l193 -402h-203l-123 225l-118 -225h-203z" />
<glyph unicode="&#xdc;" horiz-adv-x="1597" d="M352 139q-162 164 -162 451v835h271v-829q0 -197 88 -290t250 -93q164 0 251 95t87 288v829h270v-835q0 -287 -162 -451t-446 -164q-285 0 -447 164zM490 1620q-44 43 -44 109t44 108.5t106 42.5q61 0 105 -43t44 -108q0 -66 -44 -109t-105 -43q-62 0 -106 43zM896 1620 q-44 43 -44 109t44 108.5t105 42.5t105.5 -43t44.5 -108q0 -66 -44 -109t-106 -43q-61 0 -105 43z" />
<glyph unicode="&#xdd;" horiz-adv-x="1351" d="M1329 1425l-518 -933v-492h-270v492l-518 933h288l367 -692l373 692h278zM771 1901h311l-289 -299h-235z" />
<glyph unicode="&#xde;" horiz-adv-x="1351" d="M481 1425v-239h254q532 0 533 -467q0 -236 -132 -359.5t-386 -123.5h-269v-236h-270v1425h270zM916.5 527.5q66.5 56.5 66.5 183.5t-66.5 181t-226.5 54h-209v-475h217q152 0 218.5 56.5z" />
<glyph unicode="&#xdf;" horiz-adv-x="1370" d="M823.5 914.5q20.5 27.5 65.5 72.5q68 68 104.5 126t36.5 140q0 88 -50 161t-149.5 116t-238.5 43q-215 0 -327.5 -101.5t-112.5 -279.5v-1192h270v1145q0 90 46 145.5t142 55.5q70 0 110 -30t40 -83q0 -43 -23.5 -75t-70.5 -73q-66 -61 -100 -112t-34 -137 q0 -113 66 -180.5t197 -133.5q100 -51 140 -74.5t56.5 -46t16.5 -59.5q0 -74 -48.5 -106.5t-123.5 -32.5q-76 0 -155 33.5t-169 109.5v-256q86 -61 168 -88t170 -27q109 0 206 36t159.5 119t62.5 212q0 90 -33 149.5t-96.5 104.5t-185.5 113q-88 49 -124 79.5t-36 67.5 q0 31 20.5 58.5z" />
<glyph unicode="&#xe0;" horiz-adv-x="1187" d="M836 0l-27 129q-145 -154 -350 -154q-162 0 -263.5 84t-101.5 222q0 178 132 277t382 99q90 0 180 -8v39q0 90 -51 134t-162 44q-109 0 -201.5 -35.5t-201.5 -115.5v241q94 72 196.5 105t225.5 33q227 0 347 -97.5t120 -283.5v-475l45 -238h-270zM500 182q78 0 147.5 32 t140.5 101v146h-196q-119 0 -173 -35t-54 -125q0 -119 135 -119zM157 1602h312l233 -322h-258z" />
<glyph unicode="&#xe1;" horiz-adv-x="1187" d="M836 0l-27 129q-145 -154 -350 -154q-162 0 -263.5 84t-101.5 222q0 178 132 277t382 99q90 0 180 -8v39q0 90 -51 134t-162 44q-109 0 -201.5 -35.5t-201.5 -115.5v241q94 72 196.5 105t225.5 33q227 0 347 -97.5t120 -283.5v-475l45 -238h-270zM500 182q78 0 147.5 32 t140.5 101v146h-196q-119 0 -173 -35t-54 -125q0 -119 135 -119zM718 1602h295l-286 -402h-242z" />
<glyph unicode="&#xe2;" horiz-adv-x="1187" d="M836 0l-27 129q-145 -154 -350 -154q-162 0 -263.5 84t-101.5 222q0 178 132 277t382 99q90 0 180 -8v39q0 90 -51 134t-162 44q-109 0 -201.5 -35.5t-201.5 -115.5v241q94 72 196.5 105t225.5 33q227 0 347 -97.5t120 -283.5v-475l45 -238h-270zM500 182q78 0 147.5 32 t140.5 101v146h-196q-119 0 -173 -35t-54 -125q0 -119 135 -119zM463 1602h262l193 -402h-203l-123 225l-118 -225h-203z" />
<glyph unicode="&#xe3;" horiz-adv-x="1187" d="M836 0l-27 129q-145 -154 -350 -154q-162 0 -263.5 84t-101.5 222q0 178 132 277t382 99q90 0 180 -8v39q0 90 -51 134t-162 44q-109 0 -201.5 -35.5t-201.5 -115.5v241q94 72 196.5 105t225.5 33q227 0 347 -97.5t120 -283.5v-475l45 -238h-270zM500 182q78 0 147.5 32 t140.5 101v146h-196q-119 0 -173 -35t-54 -125q0 -119 135 -119zM662.5 1254.5q-33.5 13.5 -78.5 37.5q-51 27 -79 37t-63 10q-96 0 -186 -98v209q94 109 197 109q39 0 72.5 -13.5t78.5 -38.5q51 -27 79 -37t62 -10q96 0 187 76v-209q-94 -86 -197 -86q-39 0 -72.5 13.5z " />
<glyph unicode="&#xe4;" horiz-adv-x="1187" d="M836 0l-27 129q-145 -154 -350 -154q-162 0 -263.5 84t-101.5 222q0 178 132 277t382 99q90 0 180 -8v39q0 90 -51 134t-162 44q-109 0 -201.5 -35.5t-201.5 -115.5v241q94 72 196.5 105t225.5 33q227 0 347 -97.5t120 -283.5v-475l45 -238h-270zM500 182q78 0 147.5 32 t140.5 101v146h-196q-119 0 -173 -35t-54 -125q0 -119 135 -119zM286 1292q-44 43 -44 109t44 108.5t106 42.5q61 0 105 -43t44 -108q0 -66 -44 -109t-105 -43q-62 0 -106 43zM692 1292q-44 43 -44 109t44 108.5t105 42.5t105.5 -43t44.5 -108q0 -66 -44 -109t-106 -43 q-61 0 -105 43z" />
<glyph unicode="&#xe5;" horiz-adv-x="1187" d="M836 0l-27 129q-145 -154 -350 -154q-162 0 -263.5 84t-101.5 222q0 178 132 277t382 99q90 0 180 -8v39q0 90 -51 134t-162 44q-109 0 -201.5 -35.5t-201.5 -115.5v241q94 72 196.5 105t225.5 33q227 0 347 -97.5t120 -283.5v-475l45 -238h-270zM500 182q78 0 147.5 32 t140.5 101v146h-196q-119 0 -173 -35t-54 -125q0 -119 135 -119zM433.5 1560.5q65.5 65.5 160.5 65.5q94 0 159.5 -65.5t65.5 -159.5t-65.5 -159.5t-159.5 -65.5t-160 65.5t-66 159.5t65.5 159.5zM531.5 1337.5q25.5 -26.5 62.5 -26.5t61.5 26.5t24.5 63.5q0 39 -25 63.5 t-61 24.5q-39 0 -63.5 -24.5t-24.5 -63.5q0 -37 25.5 -63.5z" />
<glyph unicode="&#xe6;" horiz-adv-x="1953" d="M1145.5 21.5q-109.5 46.5 -178.5 130.5q-188 -176 -461 -177q-193 0 -302.5 88.5t-109.5 243.5q0 186 153.5 275.5t393.5 89.5q84 0 174 -13v29q0 84 -55 132t-166 48q-102 0 -207.5 -41t-202.5 -112v241q180 137 439 138q125 0 212 -34t146 -112q63 70 154.5 108 t205.5 38q160 0 275 -73t175 -200t60 -286v-107h-759q14 -104 92 -166.5t215 -62.5q102 0 199.5 37.5t199.5 111.5h8v-248q-100 -66 -199.5 -95.5t-209.5 -29.5q-142 0 -251.5 46.5zM1169.5 809q-63.5 -68 -75.5 -174h481q-12 109 -69.5 175.5t-164.5 66.5 q-108 0 -171.5 -68zM844 319q-23 61 -29 148h-184q-111 0 -181.5 -36t-70.5 -114q0 -59 41 -90.5t121 -31.5q149 -1 303 124z" />
<glyph unicode="&#xe7;" horiz-adv-x="1105" d="M469 778q-72 -84 -72 -248q0 -324 281 -323q74 0 150.5 23.5t146.5 66.5h8v-242q-88 -53 -199 -71q92 -133 93 -252q0 -113 -80 -172.5t-197 -59.5q-106 0 -211 54v174h8q96 -51 178 -52q49 0 76 22.5t27 63.5q0 51 -39 109.5t-111 118.5q-193 41 -302 183t-109 357 q0 168 69.5 296t195.5 198t290 70q184 0 311 -76v-238h-8q-68 41 -146.5 61.5t-146.5 20.5q-141 0 -213 -84z" />
<glyph unicode="&#xe8;" horiz-adv-x="1228" d="M1126 453h-743q16 -123 91 -188.5t200 -65.5q92 0 199.5 33.5t199.5 93.5h8v-220q-82 -63 -187.5 -97t-221.5 -34q-168 0 -293 68t-192.5 195t-67.5 297q0 166 64.5 292.5t181 196.5t270.5 70q150 0 261.5 -68t170.5 -194.5t59 -296.5v-82zM474.5 813.5 q-64.5 -63.5 -87.5 -176.5h461q-16 117 -69.5 178.5t-143.5 61.5q-96 0 -160.5 -63.5zM186 1602h312l233 -322h-258z" />
<glyph unicode="&#xe9;" horiz-adv-x="1228" d="M1126 453h-743q16 -123 91 -188.5t200 -65.5q92 0 199.5 33.5t199.5 93.5h8v-220q-82 -63 -187.5 -97t-221.5 -34q-168 0 -293 68t-192.5 195t-67.5 297q0 166 64.5 292.5t181 196.5t270.5 70q150 0 261.5 -68t170.5 -194.5t59 -296.5v-82zM474.5 813.5 q-64.5 -63.5 -87.5 -176.5h461q-16 117 -69.5 178.5t-143.5 61.5q-96 0 -160.5 -63.5zM747 1602h295l-286 -402h-242z" />
<glyph unicode="&#xea;" horiz-adv-x="1228" d="M1126 453h-743q16 -123 91 -188.5t200 -65.5q92 0 199.5 33.5t199.5 93.5h8v-220q-82 -63 -187.5 -97t-221.5 -34q-168 0 -293 68t-192.5 195t-67.5 297q0 166 64.5 292.5t181 196.5t270.5 70q150 0 261.5 -68t170.5 -194.5t59 -296.5v-82zM474.5 813.5 q-64.5 -63.5 -87.5 -176.5h461q-16 117 -69.5 178.5t-143.5 61.5q-96 0 -160.5 -63.5zM491 1602h262l193 -402h-203l-123 225l-118 -225h-203z" />
<glyph unicode="&#xeb;" horiz-adv-x="1228" d="M1126 453h-743q16 -123 91 -188.5t200 -65.5q92 0 199.5 33.5t199.5 93.5h8v-220q-82 -63 -187.5 -97t-221.5 -34q-168 0 -293 68t-192.5 195t-67.5 297q0 166 64.5 292.5t181 196.5t270.5 70q150 0 261.5 -68t170.5 -194.5t59 -296.5v-82zM474.5 813.5 q-64.5 -63.5 -87.5 -176.5h461q-16 117 -69.5 178.5t-143.5 61.5q-96 0 -160.5 -63.5zM314 1292q-44 43 -44 109t44 108.5t106 42.5q61 0 105 -43t44 -108q0 -66 -44 -109t-105 -43q-62 0 -106 43zM720 1292q-44 43 -44 109t44 108.5t105 42.5t105.5 -43t44.5 -108 q0 -66 -44 -109t-106 -43q-61 0 -105 43z" />
<glyph unicode="&#xec;" horiz-adv-x="573" d="M422 1069v-1069h-270v1067zM-150 1602h312l233 -322h-258z" />
<glyph unicode="&#xed;" horiz-adv-x="573" d="M422 1069v-1069h-270v1067zM411 1602h295l-286 -402h-242z" />
<glyph unicode="&#xee;" horiz-adv-x="573" d="M422 1069v-1069h-270v1067zM155 1602h262l193 -402h-203l-123 225l-118 -225h-203z" />
<glyph unicode="&#xef;" horiz-adv-x="573" d="M422 1069v-1069h-270v1067zM-22 1292q-44 43 -44 109t44 108.5t106 42.5q61 0 105 -43t44 -108q0 -66 -44 -109t-105 -43q-62 0 -106 43zM384 1292q-44 43 -44 109t44 108.5t105 42.5t105.5 -43t44.5 -108q0 -66 -44 -109t-106 -43q-61 0 -105 43z" />
<glyph unicode="&#xf0;" horiz-adv-x="1228" d="M1178 1231l-134 -23q133 -238 134 -555q0 -322 -145.5 -500t-416.5 -178q-244 0 -382 139.5t-138 379.5q0 248 147.5 384t401.5 136q121 0 213 -43q-33 113 -84 194l-317 -51v201l170 26q-96 90 -236 172v9l289 45q135 -76 231 -178l267 43v-201zM893 668v49 q-125 66 -250 65q-127 0 -195.5 -74.5t-68.5 -215.5q0 -133 62.5 -208t176.5 -75q275 0 275 459z" />
<glyph unicode="&#xf1;" d="M1029 998.5q99 -95.5 99 -250.5v-748h-270v594q0 139 -42 199.5t-138 60.5q-106 0 -225 -119v-735h-271v831l-45 238h248l39 -137q88 86 170 124t174 38q162 0 261 -95.5zM723.5 1254.5q-33.5 13.5 -78.5 37.5q-51 27 -79 37t-63 10q-96 0 -186 -98v209q94 109 197 109 q39 0 72.5 -13.5t78.5 -38.5q51 -27 79 -37t62 -10q96 0 187 76v-209q-94 -86 -197 -86q-39 0 -72.5 13.5z" />
<glyph unicode="&#xf2;" d="M371 44q-123 69 -189.5 196t-66.5 295t66.5 294.5t189.5 195.5t284 69q162 0 285 -69t189.5 -196t66.5 -294q0 -168 -66.5 -295t-189.5 -196t-285 -69q-161 0 -284 69zM843.5 286q67.5 87 67.5 249q0 164 -67.5 249.5t-188.5 85.5t-188.5 -86t-67.5 -249q0 -162 68 -249 t188 -87q121 0 188.5 87zM219 1602h312l233 -322h-258z" />
<glyph unicode="&#xf3;" d="M371 44q-123 69 -189.5 196t-66.5 295t66.5 294.5t189.5 195.5t284 69q162 0 285 -69t189.5 -196t66.5 -294q0 -168 -66.5 -295t-189.5 -196t-285 -69q-161 0 -284 69zM843.5 286q67.5 87 67.5 249q0 164 -67.5 249.5t-188.5 85.5t-188.5 -86t-67.5 -249q0 -162 68 -249 t188 -87q121 0 188.5 87zM780 1602h295l-286 -402h-242z" />
<glyph unicode="&#xf4;" d="M371 44q-123 69 -189.5 196t-66.5 295t66.5 294.5t189.5 195.5t284 69q162 0 285 -69t189.5 -196t66.5 -294q0 -168 -66.5 -295t-189.5 -196t-285 -69q-161 0 -284 69zM843.5 286q67.5 87 67.5 249q0 164 -67.5 249.5t-188.5 85.5t-188.5 -86t-67.5 -249q0 -162 68 -249 t188 -87q121 0 188.5 87zM524 1602h262l193 -402h-203l-123 225l-118 -225h-203z" />
<glyph unicode="&#xf5;" d="M371 44q-123 69 -189.5 196t-66.5 295t66.5 294.5t189.5 195.5t284 69q162 0 285 -69t189.5 -196t66.5 -294q0 -168 -66.5 -295t-189.5 -196t-285 -69q-161 0 -284 69zM843.5 286q67.5 87 67.5 249q0 164 -67.5 249.5t-188.5 85.5t-188.5 -86t-67.5 -249q0 -162 68 -249 t188 -87q121 0 188.5 87zM723.5 1254.5q-33.5 13.5 -78.5 37.5q-51 27 -79 37t-63 10q-96 0 -186 -98v209q94 109 197 109q39 0 72.5 -13.5t78.5 -38.5q51 -27 79 -37t62 -10q96 0 187 76v-209q-94 -86 -197 -86q-39 0 -72.5 13.5z" />
<glyph unicode="&#xf6;" d="M371 44q-123 69 -189.5 196t-66.5 295t66.5 294.5t189.5 195.5t284 69q162 0 285 -69t189.5 -196t66.5 -294q0 -168 -66.5 -295t-189.5 -196t-285 -69q-161 0 -284 69zM843.5 286q67.5 87 67.5 249q0 164 -67.5 249.5t-188.5 85.5t-188.5 -86t-67.5 -249q0 -162 68 -249 t188 -87q121 0 188.5 87zM347 1292q-44 43 -44 109t44 108.5t106 42.5q61 0 105 -43t44 -108q0 -66 -44 -109t-105 -43q-62 0 -106 43zM753 1292q-44 43 -44 109t44 108.5t105 42.5t105.5 -43t44.5 -108q0 -66 -44 -109t-106 -43q-61 0 -105 43z" />
<glyph unicode="&#xf7;" horiz-adv-x="1216" d="M477 991q-53 51 -53 135t53 135.5t131 51.5t131.5 -51.5t53.5 -135.5t-53.5 -135t-131.5 -51t-131 51zM1081 817v-217h-946v217h946zM477 155.5q-53 51.5 -53 135.5t53 135t131 51t131.5 -51t53.5 -135t-53.5 -135.5t-131.5 -51.5t-131 51.5z" />
<glyph unicode="&#xf8;" d="M1085 897q111 -141 111 -362q0 -168 -66.5 -295t-189.5 -196t-285 -69q-182 0 -321 91l-60 -66h-256l185 203q-88 139 -88 332q0 168 66.5 294.5t189.5 195.5t284 69q164 0 289 -72l41 47h256zM408 430l370 410q-53 31 -123 30q-121 0 -188.5 -86t-67.5 -249 q1 -62 9 -105zM893 684l-391 -434q63 -51 153 -51q121 0 188.5 87t67.5 249q0 86 -18 149z" />
<glyph unicode="&#xf9;" d="M918 0l-39 139q-104 -92 -183.5 -128t-179.5 -36q-96 0 -175 45.5t-123 124t-44 177.5v747h270v-594q0 -129 41 -194.5t119 -65.5q66 0 123 28.5t123 92.5v733h270v-831l45 -238h-247zM211 1602h312l233 -322h-258z" />
<glyph unicode="&#xfa;" d="M918 0l-39 139q-104 -92 -183.5 -128t-179.5 -36q-96 0 -175 45.5t-123 124t-44 177.5v747h270v-594q0 -129 41 -194.5t119 -65.5q66 0 123 28.5t123 92.5v733h270v-831l45 -238h-247zM772 1602h295l-286 -402h-242z" />
<glyph unicode="&#xfb;" d="M918 0l-39 139q-104 -92 -183.5 -128t-179.5 -36q-96 0 -175 45.5t-123 124t-44 177.5v747h270v-594q0 -129 41 -194.5t119 -65.5q66 0 123 28.5t123 92.5v733h270v-831l45 -238h-247zM516 1602h262l193 -402h-203l-123 225l-118 -225h-203z" />
<glyph unicode="&#xfc;" d="M918 0l-39 139q-104 -92 -183.5 -128t-179.5 -36q-96 0 -175 45.5t-123 124t-44 177.5v747h270v-594q0 -129 41 -194.5t119 -65.5q66 0 123 28.5t123 92.5v733h270v-831l45 -238h-247zM339 1292q-44 43 -44 109t44 108.5t106 42.5q61 0 105 -43t44 -108q0 -66 -44 -109 t-105 -43q-62 0 -106 43zM745 1292q-44 43 -44 109t44 108.5t105 42.5t105.5 -43t44.5 -108q0 -66 -44 -109t-106 -43q-61 0 -105 43z" />
<glyph unicode="&#xfd;" horiz-adv-x="1146" d="M1137 1069l-613 -1544h-256l174 440l-432 1104h275l297 -782l284 782h271zM700 1602h295l-286 -402h-242z" />
<glyph unicode="&#xfe;" d="M162 1544h270v-561q125 111 293 111q139 0 245.5 -70t166 -198t59.5 -296q0 -260 -139 -406.5t-381 -146.5q-63 0 -119.5 13.5t-124.5 44.5v-510h-270v2019zM849.5 281.5q61.5 76.5 61.5 253.5q0 166 -52 245.5t-163 79.5q-133 0 -264 -112v-523q51 -14 100.5 -17 t116.5 -3q139 0 200.5 76.5z" />
<glyph unicode="&#xff;" horiz-adv-x="1146" d="M1137 1069l-613 -1544h-256l174 440l-432 1104h275l297 -782l284 782h271zM267 1292q-44 43 -44 109t44 108.5t106 42.5q61 0 105 -43t44 -108q0 -66 -44 -109t-105 -43q-62 0 -106 43zM673 1292q-44 43 -44 109t44 108.5t105 42.5t105.5 -43t44.5 -108q0 -66 -44 -109 t-106 -43q-61 0 -105 43z" />
<glyph unicode="&#x131;" horiz-adv-x="573" d="M422 1069v-1069h-270v1067z" />
<glyph unicode="&#x152;" horiz-adv-x="2170" d="M483.5 65.5q-157.5 90.5 -239.5 256t-82 391.5q0 225 82 391t239.5 256t376.5 90q113 0 211 -25h930v-237h-660v-357h615v-223h-615v-370h660v-238h-930q-98 -25 -211 -25q-219 0 -376.5 90.5zM1071 276v873q-92 51 -213 51q-193 0 -302.5 -126t-109.5 -361 q0 -236 110 -362t302 -126q115 0 213 51z" />
<glyph unicode="&#x153;" horiz-adv-x="2039" d="M1937 453h-743q16 -123 91 -188.5t200 -65.5q92 0 199.5 33.5t199.5 93.5h8v-220q-82 -63 -187.5 -97t-221.5 -34q-133 0 -240.5 43t-179.5 125q-72 -80 -176.5 -124t-231.5 -44q-162 0 -284.5 69t-189 196t-66.5 295t66.5 294.5t189.5 195.5t284 69q127 0 230.5 -43 t175.5 -123q68 80 166 123t219 43q150 0 261.5 -68t170.5 -194.5t59 -296.5v-82zM1285.5 813.5q-64.5 -63.5 -87.5 -176.5h461q-16 117 -69.5 178.5t-143.5 61.5q-96 0 -160.5 -63.5zM843.5 286q67.5 87 67.5 249q0 164 -67.5 249.5t-188.5 85.5t-188.5 -86t-67.5 -249 q0 -162 68 -249t188 -87q121 0 188.5 87z" />
<glyph unicode="&#x178;" horiz-adv-x="1351" d="M1329 1425l-518 -933v-492h-270v492l-518 933h288l367 -692l373 692h278zM367 1620q-44 43 -44 109t44 108.5t106 42.5q61 0 105 -43t44 -108q0 -66 -44 -109t-105 -43q-62 0 -106 43zM773 1620q-44 43 -44 109t44 108.5t105 42.5t105.5 -43t44.5 -108q0 -66 -44 -109 t-106 -43q-61 0 -105 43z" />
<glyph unicode="&#x2c6;" horiz-adv-x="991" d="M364 1602h262l193 -402h-203l-123 225l-118 -225h-203z" />
<glyph unicode="&#x2dc;" horiz-adv-x="946" d="M541.5 1254.5q-33.5 13.5 -78.5 37.5q-51 27 -79 37t-63 10q-96 0 -186 -98v209q94 109 197 109q39 0 72.5 -13.5t78.5 -38.5q51 -27 79 -37t62 -10q96 0 187 76v-209q-94 -86 -197 -86q-39 0 -72.5 13.5z" />
<glyph unicode="&#x300;" horiz-adv-x="0" d="M-797 1602h312l233 -322h-258z" />
<glyph unicode="&#x301;" horiz-adv-x="0" d="M-236 1602h295l-286 -402h-242z" />
<glyph unicode="&#x302;" horiz-adv-x="0" d="M-627 1602h262l193 -402h-203l-123 225l-118 -225h-203z" />
<glyph unicode="&#x303;" horiz-adv-x="0" d="M-404.5 1254.5q-33.5 13.5 -78.5 37.5q-51 27 -79 37t-63 10q-96 0 -186 -98v209q94 109 197 109q39 0 72.5 -13.5t78.5 -38.5q51 -27 79 -37t62 -10q96 0 187 76v-209q-94 -86 -197 -86q-39 0 -72.5 13.5z" />
<glyph unicode="&#x304;" horiz-adv-x="0" d="M-164 1503v-205h-618v205h618z" />
<glyph unicode="&#x308;" horiz-adv-x="0" d="M-804 1292q-44 43 -44 109t44 108.5t106 42.5q61 0 105 -43t44 -108q0 -66 -44 -109t-105 -43q-62 0 -106 43zM-398 1292q-44 43 -44 109t44 108.5t105 42.5t105.5 -43t44.5 -108q0 -66 -44 -109t-106 -43q-61 0 -105 43z" />
<glyph unicode="&#x30a;" horiz-adv-x="0" d="M-475.5 1560.5q65.5 65.5 160.5 65.5q94 0 159.5 -65.5t65.5 -159.5t-65.5 -159.5t-159.5 -65.5t-160 65.5t-66 159.5t65.5 159.5zM-377.5 1337.5q25.5 -26.5 62.5 -26.5t61.5 26.5t24.5 63.5q0 39 -25 63.5t-61 24.5q-39 0 -63.5 -24.5t-24.5 -63.5q0 -37 25.5 -63.5z " />
<glyph unicode="&#x327;" horiz-adv-x="0" d="M-553 -446v174h8q96 -51 178 -52q49 0 76 22.5t27 63.5q0 53 -43 115t-119 123l217 53q143 -176 143 -321q0 -113 -79.5 -172.5t-196.5 -59.5q-107 1 -211 54z" />
<glyph unicode="&#x2000;" horiz-adv-x="950" />
<glyph unicode="&#x2001;" horiz-adv-x="1901" />
<glyph unicode="&#x2002;" horiz-adv-x="950" />
<glyph unicode="&#x2003;" horiz-adv-x="1901" />
<glyph unicode="&#x2004;" horiz-adv-x="633" />
<glyph unicode="&#x2005;" horiz-adv-x="475" />
<glyph unicode="&#x2006;" horiz-adv-x="316" />
<glyph unicode="&#x2007;" horiz-adv-x="316" />
<glyph unicode="&#x2008;" horiz-adv-x="237" />
<glyph unicode="&#x2009;" horiz-adv-x="380" />
<glyph unicode="&#x200a;" horiz-adv-x="105" />
<glyph unicode="&#x2010;" horiz-adv-x="819" d="M676 662v-218h-533v218h533z" />
<glyph unicode="&#x2011;" horiz-adv-x="819" d="M676 662v-218h-533v218h533z" />
<glyph unicode="&#x2012;" horiz-adv-x="819" d="M676 662v-218h-533v218h533z" />
<glyph unicode="&#x2013;" d="M1167 662v-218h-1024v218h1024z" />
<glyph unicode="&#x2014;" horiz-adv-x="2048" d="M1905 662v-218h-1762v218h1762z" />
<glyph unicode="&#x2018;" horiz-adv-x="450" d="M23 889q0 119 36.5 246t130.5 290h246q-68 -109 -98.5 -202t-37.5 -164.5t-7 -169.5h-270z" />
<glyph unicode="&#x2019;" horiz-adv-x="450" d="M428 1425q0 -119 -37 -245.5t-131 -290.5h-246q68 109 98.5 202t38 164.5t7.5 169.5h270z" />
<glyph unicode="&#x201a;" horiz-adv-x="532" d="M414 307q0 -137 -37 -282.5t-131 -331.5h-271q68 123 98.5 230.5t38 190.5t7.5 193h295z" />
<glyph unicode="&#x201c;" horiz-adv-x="819" d="M23 889q0 119 36.5 246t130.5 290h246q-68 -109 -98.5 -202t-37.5 -164.5t-7 -169.5h-270zM391 889q0 119 37 246t131 290h246q-68 -109 -98.5 -202t-37.5 -164.5t-7 -169.5h-271z" />
<glyph unicode="&#x201d;" horiz-adv-x="819" d="M428 1425q0 -119 -37 -245.5t-131 -290.5h-246q68 109 98.5 202t38 164.5t7.5 169.5h270zM797 1425q0 -119 -37 -245.5t-131 -290.5h-246q68 109 98.5 202t37.5 164.5t7 169.5h271z" />
<glyph unicode="&#x201e;" horiz-adv-x="942" d="M824 307q0 -137 -37 -282.5t-131 -331.5h-271q68 123 98.5 230.5t38 190.5t7.5 193h295zM414 307q0 -137 -37 -282.5t-131 -331.5h-271q68 123 98.5 230.5t38 190.5t7.5 193h295z" />
<glyph unicode="&#x2022;" horiz-adv-x="720" d="M169 433q-79 77 -79 198t79 197.5t191 76.5q113 0 192 -76.5t79 -197.5t-79 -198t-192 -77q-112 0 -191 77z" />
<glyph unicode="&#x2026;" horiz-adv-x="1622" d="M139.5 26.5q-53.5 51.5 -53.5 135.5t53.5 135t130.5 51q78 0 131.5 -51t53.5 -135t-53.5 -135.5t-131.5 -51.5q-77 0 -130.5 51.5zM680 26.5q-53 51.5 -53 135.5t53 135t131 51t131 -51t53 -135t-53 -135.5t-131 -51.5t-131 51.5zM1220.5 26.5q-53.5 51.5 -53.5 135.5 t53.5 135t131.5 51t131 -51t53 -135t-53 -135.5t-131 -51.5t-131.5 51.5z" />
<glyph unicode="&#x202f;" horiz-adv-x="380" />
<glyph unicode="&#x2039;" horiz-adv-x="720" d="M676 119h-314l-362 420v8l383 403h293l-371 -403v-8z" />
<glyph unicode="&#x203a;" horiz-adv-x="720" d="M45 950h313l363 -420v-8l-383 -403h-293l371 403v8z" />
<glyph unicode="&#x2044;" horiz-adv-x="573" d="M834 1425l-848 -1425h-246l848 1425h246z" />
<glyph unicode="&#x205f;" horiz-adv-x="475" />
<glyph unicode="&#x20ac;" horiz-adv-x="1216" d="M584.5 1148q-72.5 -71 -99.5 -200h371v-188h-391v-47v-60h391v-188h-369q29 -123 102 -190.5t202 -67.5q84 0 161.5 25.5t165.5 80.5h8v-247q-86 -49 -164.5 -70t-162.5 -21q-256 0 -402.5 130.5t-193.5 359.5h-158v188h137q-2 20 -2 60v47h-135v188h156 q45 233 192.5 367.5t407.5 134.5q84 0 162.5 -19.5t162.5 -70.5v-248h-8q-166 106 -327 107q-134 0 -206.5 -71z" />
<glyph unicode="&#x2122;" horiz-adv-x="1306" d="M90 1425h420v-135h-137v-418h-146v418h-137v135zM1217 872h-146v324l-92 -324h-164l-100 330v-330h-146v553h217l111 -366l102 366h218v-553z" />
<glyph unicode="&#x2212;" horiz-adv-x="1216" d="M1081 817v-217h-946v217h946z" />
<glyph unicode="&#x25fc;" horiz-adv-x="1064" d="M0 1065h1065v-1065h-1065v1065z" />
<glyph horiz-adv-x="837" d="M743 168v-180h-649v162l279 235q131 113 131 195q0 39 -31 55t-96 16q-133 0 -256 -67v186q129 59 266 59q154 0 243 -61t89 -178q0 -119 -125 -240l-193 -182h342z" />
<glyph horiz-adv-x="837" d="M778 154h-119v-166h-213v166h-407v168h2l405 493h213v-485h119v-176zM446 330v219l-157 -219h157z" />
<glyph horiz-adv-x="839" d="M758 791v-181h-676v181h254v413l-162 -49h-6l-45 137v4l280 142h146v-647h209z" />
<glyph horiz-adv-x="839" d="M726 956.5q32 -53.5 32 -114.5q0 -115 -103.5 -180.5t-271.5 -65.5q-160 0 -301 68v200h6q143 -90 285 -90q166 0 166 76q0 45 -51.5 75.5t-135.5 30.5h-55v170h55q78 0 124 25t46 66q0 55 -141 55q-123 0 -268 -74h-4v195q133 59 280 59q160 0 254 -59.5t94 -163.5 q0 -55 -26.5 -102.5t-75.5 -82.5q59 -34 91 -87.5z" />
<glyph horiz-adv-x="0" d="M-233 1901h311l-289 -299h-235z" />
<glyph horiz-adv-x="0" d="M-627 1901h262l193 -402h-203l-123 225l-118 -225h-203z" />
<glyph horiz-adv-x="0" d="M-804 1620q-44 43 -44 109t44 108.5t106 42.5q61 0 105 -43t44 -108q0 -66 -44 -109t-105 -43q-62 0 -106 43zM-398 1620q-44 43 -44 109t44 108.5t105 42.5t105.5 -43t44.5 -108q0 -66 -44 -109t-106 -43q-61 0 -105 43z" />
<glyph horiz-adv-x="0" d="M-453 1602l-288 299h311l213 -299h-236z" />
<glyph horiz-adv-x="0" d="M-475.5 1835q65.5 66 160.5 66q94 0 159.5 -66t65.5 -160t-65.5 -159.5t-159.5 -65.5t-160 65.5t-66 159.5t65.5 160zM-377.5 1611.5q25.5 -26.5 62.5 -26.5t61.5 26.5t24.5 63.5q0 39 -25 63.5t-61 24.5q-39 0 -63.5 -24.5t-24.5 -63.5q0 -37 25.5 -63.5z" />
<glyph horiz-adv-x="0" d="M-404.5 1596.5q-33.5 13.5 -78.5 37.5q-51 27 -79 37t-63 10q-96 0 -186 -98v193q94 109 197 108q39 0 72.5 -13t78.5 -38q51 -27 79 -37t62 -10q96 0 187 76v-193q-94 -86 -197 -86q-39 0 -72.5 13.5z" />
</font>
</defs>
</svg>
